<?xml version="1.0" encoding="UTF-8"?>
<svg xmlns="http://www.w3.org/2000/svg" xmlns:xlink="http://www.w3.org/1999/xlink" width="150px" height="91px" viewBox="0 0 150 91" version="1.1">
<g id="surface1">
<path style=" stroke:none;fill-rule:nonzero;fill:rgb(100%,100%,100%);fill-opacity:1;" d="M 24.761719 21.949219 L 24.761719 32.375 L 13.941406 32.375 C 13.058594 32.375 12.261719 32.644531 11.585938 33.226562 C 9.53125 35.003906 11.351562 37.222656 12.699219 38.769531 C 18.375 37.175781 22.90625 38.472656 25.964844 41.074219 C 28.019531 42.828125 29.386719 45.175781 29.980469 47.640625 C 31.949219 55.804688 25.527344 60.777344 17.511719 60.722656 L 17.511719 57.25 C 22.464844 56.808594 27.570312 54.53125 26.136719 48.574219 C 25.730469 46.902344 24.800781 45.3125 23.40625 44.121094 C 18.511719 39.953125 10.757812 42.839844 7.152344 47.296875 C 4.871094 50.113281 3.699219 53.886719 4.019531 58.078125 C 4.378906 62.777344 6.300781 67.023438 9.304688 70.046875 C 12.144531 72.902344 15.964844 74.667969 20.363281 74.667969 C 23.644531 74.667969 26.738281 73.6875 29.324219 71.976562 C 31.949219 70.242188 34.074219 67.753906 35.355469 64.761719 L 38.753906 64.746094 C 37.457031 69.125 34.589844 72.839844 31.496094 75.300781 C 28.261719 77.4375 24.417969 78.660156 20.363281 78.660156 C 14.847656 78.660156 10.054688 76.453125 6.496094 72.871094 C 2.835938 69.1875 0.496094 64.042969 0.0664062 58.375 C -0.335938 53.144531 1.164062 48.386719 4.082031 44.78125 C 5.425781 43.117188 7.070312 41.707031 8.964844 40.613281 C 7.367188 38.8125 5.941406 36.601562 5.941406 34.742188 C 5.941406 32.910156 6.742188 31.382812 8.292969 30.101562 C 9.878906 28.796875 11.746094 28.113281 13.941406 28.113281 L 20.058594 28.113281 L 20.058594 21.949219 L 2.640625 21.949219 L 2.640625 18.695312 L 36.285156 18.695312 C 35.714844 18.21875 35.324219 17.558594 35.046875 16.863281 C 34.609375 15.757812 34.453125 14.542969 34.453125 13.359375 C 34.453125 9.613281 35.859375 6.476562 38.582031 3.929688 C 41.328125 1.265625 44.644531 0 48.457031 0 C 52.480469 0 55.960938 1.703125 58.976562 4.292969 C 62.269531 7.113281 64.589844 10.652344 66.144531 14.664062 L 62.0625 14.664062 C 60.816406 11.84375 59.109375 9.265625 56.800781 7.175781 C 54.441406 5.039062 51.671875 3.621094 48.457031 3.621094 C 45.699219 3.621094 43.339844 4.585938 41.355469 6.511719 C 39.421875 8.386719 38.417969 10.648438 38.417969 13.359375 C 38.417969 14.546875 38.558594 15.777344 38.988281 16.890625 C 39.277344 17.628906 39.730469 18.359375 40.476562 18.695312 L 150.003906 18.695312 L 150.003906 21.949219 L 143.8125 21.949219 L 143.8125 66.164062 L 139.847656 66.164062 L 139.847656 37.347656 L 132.566406 37.347656 L 132.566406 33.726562 L 139.847656 33.726562 L 139.847656 21.949219 L 125.640625 21.949219 C 127.363281 23.078125 128.722656 24.574219 129.730469 26.402344 C 130.886719 28.496094 131.429688 30.765625 131.429688 33.152344 C 131.429688 36.683594 129.917969 39.546875 127.292969 41.851562 C 124.484375 44.320312 121.140625 45.410156 117.425781 45.410156 L 116.347656 45.410156 L 125.0625 54.460938 L 121.902344 56.183594 L 106.574219 40.109375 L 109.050781 37.6875 L 112.777344 41.441406 C 114.148438 41.953125 115.605469 42.152344 117.0625 42.152344 C 119.851562 42.152344 122.339844 41.3125 124.460938 39.480469 C 126.394531 37.8125 127.464844 35.730469 127.464844 33.152344 C 127.464844 30.109375 126.488281 27.449219 124.449219 25.199219 C 122.433594 23.074219 119.988281 21.949219 117.0625 21.949219 L 103.585938 21.949219 L 103.585938 55.675781 L 99.621094 55.675781 L 99.621094 21.949219 L 93.007812 21.949219 L 93.007812 33.917969 L 92.734375 33.632812 C 91.382812 32.222656 89.792969 31.164062 87.976562 30.441406 C 86.167969 29.652344 84.257812 29.285156 82.285156 29.285156 C 79.792969 29.285156 77.714844 30.214844 75.988281 32.019531 C 74.222656 33.875 73.339844 36.074219 73.339844 38.652344 C 73.339844 41.074219 74.25 43.09375 75.984375 44.765625 C 77.746094 46.464844 79.847656 47.285156 82.285156 47.285156 C 83.652344 47.285156 85.023438 47.105469 86.3125 46.636719 C 87.355469 46.257812 88.324219 45.683594 89.042969 44.824219 L 89.042969 40.6875 L 93.007812 40.6875 L 93.007812 55.675781 L 89.042969 55.675781 L 89.042969 49.277344 C 88.359375 49.84375 87.464844 50.179688 86.628906 50.390625 C 85.230469 50.785156 83.730469 50.910156 82.285156 50.910156 C 78.777344 50.910156 75.722656 49.742188 73.140625 47.34375 C 70.683594 44.972656 69.375 42.085938 69.375 38.652344 C 69.375 35.066406 70.644531 32.003906 73.140625 29.445312 C 75.679688 26.9375 78.726562 25.660156 82.285156 25.660156 C 83.65625 25.660156 85.070312 25.769531 86.410156 26.105469 C 87.324219 26.363281 88.273438 26.738281 89.042969 27.316406 L 89.042969 21.949219 L 61.519531 21.949219 C 63.335938 23.253906 64.824219 24.882812 65.949219 26.839844 C 67.070312 28.789062 67.714844 30.894531 67.714844 33.152344 C 67.714844 36.792969 66.195312 39.804688 63.585938 42.289062 C 60.808594 44.933594 57.449219 46.371094 53.679688 46.839844 L 60.742188 54.46875 L 57.683594 56.382812 L 43.214844 40.03125 L 45.703125 37.6875 L 51.300781 43.929688 C 54.582031 43.6875 57.800781 42.613281 60.234375 40.363281 C 62.445312 38.320312 63.753906 35.835938 63.753906 32.785156 C 63.753906 30.363281 62.882812 28.238281 61.386719 26.363281 C 59.738281 24.300781 57.601562 22.871094 55.144531 21.949219 L 40.238281 21.949219 L 40.238281 55.578125 L 36.277344 55.578125 L 36.277344 21.949219 Z M 24.761719 21.949219 "/>
<path style=" stroke:none;fill-rule:nonzero;fill:rgb(100%,100%,100%);fill-opacity:1;" d="M 42.300781 59.046875 L 138.558594 59.046875 L 138.558594 61.324219 L 135.636719 61.324219 L 135.636719 87.511719 L 132.804688 87.511719 L 132.804688 70.433594 C 132.203125 69.558594 131.277344 68.855469 130.035156 68.328125 C 128.789062 67.832031 127.355469 67.585938 125.734375 67.585938 C 123.320312 67.585938 121.246094 68.421875 119.511719 70.089844 C 117.816406 71.761719 116.964844 73.773438 116.964844 76.125 C 116.964844 78.171875 117.472656 80.09375 118.492188 81.875 C 119.511719 83.660156 120.886719 85.0625 122.621094 86.089844 L 120.640625 87.792969 C 118.644531 86.621094 117.058594 84.988281 115.890625 82.902344 C 114.722656 80.8125 114.136719 78.550781 114.136719 76.125 C 114.136719 73.050781 115.269531 70.433594 117.53125 68.269531 C 119.792969 66.105469 122.527344 65.023438 125.734375 65.023438 C 127.242188 65.023438 128.621094 65.195312 129.863281 65.535156 C 131.070312 65.875 132.050781 66.371094 132.804688 67.015625 L 132.804688 61.324219 L 111.851562 61.324219 L 111.851562 87.511719 L 109.027344 87.511719 L 109.027344 82.671875 C 108.269531 83.582031 107.230469 84.285156 105.914062 84.777344 C 104.554688 85.269531 103.046875 85.519531 101.386719 85.519531 C 98.484375 85.519531 96.011719 84.511719 93.976562 82.5 C 91.941406 80.527344 90.917969 78.117188 90.917969 75.269531 C 90.917969 72.347656 91.941406 69.863281 93.976562 67.8125 C 96.011719 65.761719 98.484375 64.738281 101.386719 64.738281 C 102.441406 64.738281 103.480469 64.925781 104.5 65.304688 C 105.519531 65.726562 106.457031 66.292969 107.328125 67.015625 L 105.914062 69.007812 C 105.273438 68.4375 104.554688 68.019531 103.761719 67.757812 C 102.972656 67.449219 102.179688 67.300781 101.386719 67.300781 C 99.277344 67.300781 97.480469 68.078125 96.011719 69.632812 C 94.503906 71.191406 93.75 73.070312 93.75 75.269531 C 93.75 77.394531 94.503906 79.199219 96.011719 80.679688 C 97.480469 82.199219 99.277344 82.957031 101.386719 82.957031 C 103.011719 82.957031 104.5 82.578125 105.855469 81.820312 C 107.214844 81.058594 108.269531 80.015625 109.027344 78.6875 L 109.027344 61.324219 L 89.160156 61.324219 L 89.160156 87.304688 L 86.347656 87.304688 L 86.347656 61.304688 L 75.167969 61.304688 L 75.167969 64.464844 C 77.417969 64.6875 79.386719 65.632812 81.070312 67.296875 C 82.980469 69.257812 83.933594 71.59375 83.933594 74.304688 C 83.933594 76.867188 82.980469 79.074219 81.070312 80.917969 C 79.125 82.726562 76.800781 83.632812 74.105469 83.632812 C 73.769531 83.632812 73.441406 83.625 73.128906 83.601562 L 78.167969 89.292969 L 76.433594 91.03125 L 68.769531 82.378906 L 64.613281 77.683594 L 66.34375 75.941406 L 68.769531 78.683594 L 70.113281 80.199219 C 70.375 80.34375 70.660156 80.46875 70.964844 80.578125 C 71.898438 80.917969 72.945312 81.089844 74.105469 81.089844 C 76.054688 81.089844 77.699219 80.429688 79.050781 79.109375 C 80.433594 77.792969 81.125 76.191406 81.125 74.304688 C 81.125 72.273438 80.433594 70.539062 79.050781 69.105469 C 77.699219 67.675781 76.054688 66.957031 74.105469 66.957031 C 72.855469 66.957031 71.664062 67.148438 70.53125 67.53125 L 70.53125 64.886719 C 70.667969 64.839844 70.8125 64.796875 70.964844 64.753906 C 71.394531 64.644531 71.859375 64.5625 72.363281 64.507812 L 72.363281 61.304688 L 68.597656 61.304688 L 68.597656 61.324219 L 63.792969 61.324219 L 63.792969 87.511719 L 60.960938 87.511719 L 60.960938 80.679688 C 60.09375 81.589844 59 82.292969 57.679688 82.785156 C 56.363281 83.28125 54.910156 83.527344 53.324219 83.527344 C 50.042969 83.527344 47.253906 82.386719 44.949219 80.109375 C 42.613281 77.832031 41.441406 75.082031 41.441406 71.855469 C 41.441406 70.601562 41.519531 69.578125 41.667969 68.78125 C 41.820312 67.945312 42.027344 67.355469 42.292969 67.015625 C 42.746094 67.472656 43.40625 67.832031 44.273438 68.097656 C 45.101562 68.328125 46.046875 68.4375 47.101562 68.4375 C 48.496094 68.4375 49.707031 68.136719 50.722656 67.527344 C 51.703125 66.921875 52.191406 66.183594 52.191406 65.308594 C 52.191406 64.207031 51.722656 63.277344 50.78125 62.519531 C 49.835938 61.722656 48.703125 61.324219 47.386719 61.324219 L 42.300781 61.324219 Z M 110.503906 50.40625 C 111.472656 50.40625 112.394531 50.789062 113.078125 51.476562 C 113.761719 52.167969 114.144531 53.09375 114.144531 54.066406 C 114.144531 55.042969 113.761719 55.96875 113.078125 56.65625 C 112.394531 57.34375 111.472656 57.730469 110.503906 57.730469 C 109.539062 57.730469 108.617188 57.34375 107.933594 56.65625 C 107.25 55.96875 106.871094 55.042969 106.871094 54.066406 C 106.871094 53.09375 107.25 52.167969 107.933594 51.476562 C 108.617188 50.789062 109.539062 50.40625 110.503906 50.40625 Z M 111.859375 52.707031 C 111.496094 52.34375 111.015625 52.144531 110.503906 52.144531 C 109.996094 52.144531 109.515625 52.34375 109.152344 52.707031 C 108.792969 53.070312 108.59375 53.554688 108.59375 54.066406 C 108.59375 54.582031 108.792969 55.066406 109.152344 55.425781 C 109.515625 55.789062 109.996094 55.992188 110.503906 55.992188 C 111.015625 55.992188 111.496094 55.789062 111.859375 55.425781 C 112.21875 55.066406 112.417969 54.582031 112.417969 54.066406 C 112.417969 53.554688 112.214844 53.070312 111.859375 52.707031 Z M 53.324219 80.964844 C 54.945312 80.964844 56.4375 80.660156 57.792969 80.054688 C 59.113281 79.445312 60.167969 78.613281 60.960938 77.546875 L 60.960938 61.324219 L 52.757812 61.324219 C 53.476562 61.929688 54.042969 62.574219 54.457031 63.257812 C 54.832031 63.976562 55.023438 64.664062 55.023438 65.304688 C 55.023438 66.863281 54.304688 68.210938 52.871094 69.347656 C 51.441406 70.449219 49.707031 71 47.667969 71 C 46.007812 71 44.914062 70.90625 44.386719 70.71875 C 44.3125 71.136719 44.273438 71.515625 44.273438 71.855469 C 44.273438 74.359375 45.160156 76.503906 46.929688 78.289062 C 48.703125 80.070312 50.835938 80.964844 53.324219 80.964844 Z M 53.324219 80.964844 "/>
</g>
</svg>
