<?xml version="1.0" encoding="UTF-8"?>
<svg xmlns="http://www.w3.org/2000/svg" xmlns:xlink="http://www.w3.org/1999/xlink" width="100px" height="60px" viewBox="0 0 99 60" version="1.1">
<g id="surface1">
<path style=" stroke:none;fill-rule:nonzero;fill:rgb(100%,45.882353%,0%);fill-opacity:1;" d="M 16.34375 14.472656 L 16.34375 21.347656 L 9.199219 21.347656 C 8.621094 21.347656 8.09375 21.523438 7.648438 21.90625 C 6.289062 23.078125 7.492188 24.542969 8.378906 25.5625 C 12.128906 24.511719 15.121094 25.367188 17.136719 27.082031 C 18.492188 28.238281 19.394531 29.785156 19.789062 31.410156 C 21.085938 36.792969 16.847656 40.070312 11.558594 40.035156 L 11.558594 37.746094 C 14.828125 37.457031 18.195312 35.953125 17.25 32.027344 C 16.984375 30.925781 16.371094 29.875 15.445312 29.089844 C 12.21875 26.34375 7.101562 28.246094 4.71875 31.183594 C 3.214844 33.042969 2.441406 35.53125 2.652344 38.296875 C 2.890625 41.390625 4.160156 44.191406 6.140625 46.183594 C 8.015625 48.066406 10.539062 49.230469 13.4375 49.230469 C 15.605469 49.230469 17.644531 48.585938 19.355469 47.457031 C 21.089844 46.3125 22.488281 44.671875 23.335938 42.703125 L 25.578125 42.6875 C 24.722656 45.578125 22.828125 48.027344 20.789062 49.648438 C 18.652344 51.058594 16.117188 51.863281 13.4375 51.863281 C 9.800781 51.863281 6.636719 50.40625 4.289062 48.046875 C 1.871094 45.617188 0.328125 42.226562 0.0429688 38.492188 C -0.222656 35.039062 0.765625 31.902344 2.691406 29.527344 C 3.582031 28.429688 4.667969 27.5 5.917969 26.777344 C 4.863281 25.589844 3.921875 24.132812 3.921875 22.90625 C 3.921875 21.699219 4.449219 20.691406 5.472656 19.847656 C 6.519531 18.984375 7.75 18.535156 9.199219 18.535156 L 13.238281 18.535156 L 13.238281 14.472656 L 1.742188 14.472656 L 1.742188 12.328125 L 23.949219 12.328125 C 23.574219 12.011719 23.3125 11.578125 23.132812 11.121094 C 22.839844 10.390625 22.738281 9.589844 22.738281 8.808594 C 22.738281 6.335938 23.667969 4.269531 25.464844 2.59375 C 27.277344 0.835938 29.464844 0 31.980469 0 C 34.640625 0 36.933594 1.121094 38.925781 2.828125 C 41.097656 4.6875 42.628906 7.023438 43.65625 9.671875 L 40.960938 9.671875 C 40.136719 7.808594 39.011719 6.109375 37.488281 4.730469 C 35.933594 3.324219 34.105469 2.386719 31.980469 2.386719 C 30.160156 2.386719 28.605469 3.023438 27.292969 4.292969 C 26.019531 5.527344 25.355469 7.019531 25.355469 8.808594 C 25.355469 9.589844 25.449219 10.402344 25.734375 11.136719 C 25.921875 11.625 26.222656 12.105469 26.714844 12.328125 L 99.003906 12.328125 L 99.003906 14.472656 L 94.917969 14.472656 L 94.917969 43.625 L 92.300781 43.625 L 92.300781 24.625 L 87.492188 24.625 L 87.492188 22.234375 L 92.300781 22.234375 L 92.300781 14.472656 L 82.921875 14.472656 C 84.058594 15.21875 84.957031 16.203125 85.625 17.410156 C 86.382812 18.789062 86.742188 20.285156 86.742188 21.859375 C 86.742188 24.1875 85.746094 26.074219 84.015625 27.59375 C 82.160156 29.222656 79.953125 29.941406 77.5 29.941406 L 76.789062 29.941406 L 82.542969 35.90625 L 80.457031 37.046875 L 70.339844 26.445312 L 71.972656 24.851562 L 74.433594 27.324219 C 75.339844 27.660156 76.296875 27.792969 77.261719 27.792969 C 79.101562 27.792969 80.746094 27.242188 82.144531 26.03125 C 83.421875 24.929688 84.125 23.558594 84.125 21.859375 C 84.125 19.851562 83.480469 18.097656 82.136719 16.617188 C 80.804688 15.214844 79.191406 14.472656 77.261719 14.472656 L 68.367188 14.472656 L 68.367188 36.710938 L 65.75 36.710938 L 65.75 14.472656 L 61.386719 14.472656 L 61.386719 22.363281 L 61.203125 22.175781 C 60.3125 21.246094 59.261719 20.546875 58.066406 20.070312 C 56.871094 19.550781 55.609375 19.308594 54.308594 19.308594 C 52.664062 19.308594 51.289062 19.921875 50.152344 21.109375 C 48.984375 22.335938 48.402344 23.785156 48.402344 25.484375 C 48.402344 27.082031 49.007812 28.414062 50.152344 29.515625 C 51.3125 30.636719 52.699219 31.179688 54.308594 31.179688 C 55.210938 31.179688 56.113281 31.058594 56.964844 30.75 C 57.65625 30.5 58.292969 30.121094 58.769531 29.554688 L 58.769531 26.828125 L 61.386719 26.828125 L 61.386719 36.707031 L 58.769531 36.707031 L 58.769531 32.492188 C 58.316406 32.863281 57.726562 33.085938 57.175781 33.226562 C 56.253906 33.484375 55.261719 33.566406 54.308594 33.566406 C 51.996094 33.566406 49.976562 32.796875 48.273438 31.21875 C 46.652344 29.652344 45.789062 27.75 45.789062 25.484375 C 45.789062 23.121094 46.625 21.101562 48.273438 19.414062 C 49.949219 17.761719 51.957031 16.917969 54.308594 16.917969 C 55.214844 16.917969 56.148438 16.992188 57.03125 17.210938 C 57.632812 17.382812 58.261719 17.628906 58.769531 18.011719 L 58.769531 14.472656 L 40.601562 14.472656 C 41.800781 15.332031 42.78125 16.40625 43.523438 17.695312 C 44.265625 18.984375 44.695312 20.371094 44.695312 21.859375 C 44.695312 24.257812 43.691406 26.242188 41.96875 27.882812 C 40.132812 29.625 37.917969 30.574219 35.429688 30.882812 L 40.089844 35.914062 L 38.074219 37.175781 L 28.519531 26.394531 L 30.164062 24.847656 L 33.859375 28.964844 C 36.023438 28.804688 38.148438 28.097656 39.753906 26.613281 C 41.214844 25.265625 42.078125 23.625 42.078125 21.617188 C 42.078125 20.019531 41.503906 18.617188 40.515625 17.382812 C 39.425781 16.023438 38.015625 15.082031 36.394531 14.472656 L 26.558594 14.472656 L 26.558594 36.644531 L 23.941406 36.644531 L 23.941406 14.472656 Z M 16.34375 14.472656 "/>
<path style=" stroke:none;fill-rule:nonzero;fill:rgb(100%,45.882353%,0%);fill-opacity:1;" d="M 27.917969 38.929688 L 91.449219 38.929688 L 91.449219 40.433594 L 89.519531 40.433594 L 89.519531 57.699219 L 87.652344 57.699219 L 87.652344 46.4375 C 87.253906 45.863281 86.644531 45.398438 85.824219 45.050781 C 85 44.722656 84.054688 44.5625 82.984375 44.5625 C 81.390625 44.5625 80.023438 45.113281 78.878906 46.214844 C 77.757812 47.3125 77.195312 48.640625 77.195312 50.191406 C 77.195312 51.542969 77.53125 52.808594 78.207031 53.984375 C 78.878906 55.160156 79.785156 56.085938 80.929688 56.761719 L 79.625 57.886719 C 78.304688 57.113281 77.257812 56.035156 76.488281 54.660156 C 75.714844 53.28125 75.328125 51.792969 75.328125 50.191406 C 75.328125 48.164062 76.078125 46.4375 77.570312 45.011719 C 79.0625 43.585938 80.867188 42.871094 82.984375 42.871094 C 83.980469 42.871094 84.890625 42.984375 85.710938 43.210938 C 86.507812 43.433594 87.152344 43.761719 87.652344 44.1875 L 87.652344 40.433594 L 73.824219 40.433594 L 73.824219 57.699219 L 71.957031 57.699219 L 71.957031 54.507812 C 71.457031 55.109375 70.773438 55.574219 69.902344 55.898438 C 69.007812 56.222656 68.011719 56.386719 66.914062 56.386719 C 65 56.386719 63.367188 55.722656 62.023438 54.394531 C 60.679688 53.09375 60.007812 51.507812 60.007812 49.628906 C 60.007812 47.703125 60.679688 46.0625 62.023438 44.710938 C 63.367188 43.359375 65 42.683594 66.914062 42.683594 C 67.613281 42.683594 68.296875 42.808594 68.96875 43.058594 C 69.640625 43.335938 70.265625 43.710938 70.835938 44.1875 L 69.902344 45.5 C 69.480469 45.125 69.007812 44.847656 68.484375 44.675781 C 67.960938 44.472656 67.4375 44.375 66.914062 44.375 C 65.523438 44.375 64.339844 44.886719 63.367188 45.914062 C 62.371094 46.9375 61.875 48.179688 61.875 49.628906 C 61.875 51.03125 62.371094 52.21875 63.367188 53.195312 C 64.339844 54.195312 65.523438 54.695312 66.914062 54.695312 C 67.984375 54.695312 68.96875 54.445312 69.867188 53.945312 C 70.761719 53.445312 71.457031 52.757812 71.957031 51.882812 L 71.957031 40.433594 L 58.84375 40.433594 L 58.84375 57.5625 L 56.992188 57.5625 L 56.992188 40.421875 L 49.613281 40.421875 L 49.613281 42.503906 C 51.097656 42.652344 52.394531 43.273438 53.507812 44.371094 C 54.765625 45.664062 55.398438 47.203125 55.398438 48.992188 C 55.398438 50.683594 54.765625 52.136719 53.507812 53.351562 C 52.222656 54.546875 50.691406 55.140625 48.910156 55.140625 C 48.6875 55.140625 48.472656 55.136719 48.265625 55.125 L 51.589844 58.875 L 50.449219 60.023438 L 45.390625 54.316406 L 42.644531 51.21875 L 43.785156 50.070312 L 45.390625 51.878906 L 46.277344 52.878906 C 46.449219 52.972656 46.632812 53.058594 46.835938 53.128906 C 47.453125 53.351562 48.144531 53.464844 48.910156 53.464844 C 50.195312 53.464844 51.28125 53.03125 52.171875 52.160156 C 53.085938 51.289062 53.542969 50.234375 53.542969 48.992188 C 53.542969 47.652344 53.085938 46.507812 52.171875 45.5625 C 51.28125 44.621094 50.195312 44.148438 48.910156 44.148438 C 48.085938 44.148438 47.296875 44.273438 46.550781 44.527344 L 46.550781 42.78125 C 46.640625 42.75 46.738281 42.722656 46.835938 42.695312 C 47.121094 42.625 47.429688 42.570312 47.757812 42.53125 L 47.757812 40.421875 L 45.277344 40.421875 L 45.277344 40.433594 L 42.101562 40.433594 L 42.101562 57.699219 L 40.234375 57.699219 L 40.234375 53.195312 C 39.664062 53.796875 38.941406 54.257812 38.070312 54.585938 C 37.199219 54.910156 36.238281 55.074219 35.195312 55.074219 C 33.027344 55.074219 31.1875 54.320312 29.667969 52.820312 C 28.125 51.320312 27.351562 49.503906 27.351562 47.378906 C 27.351562 46.550781 27.402344 45.875 27.503906 45.351562 C 27.601562 44.800781 27.738281 44.410156 27.914062 44.1875 C 28.210938 44.488281 28.648438 44.722656 29.21875 44.898438 C 29.769531 45.050781 30.390625 45.125 31.085938 45.125 C 32.007812 45.125 32.804688 44.925781 33.476562 44.523438 C 34.125 44.125 34.449219 43.636719 34.449219 43.058594 C 34.449219 42.335938 34.136719 41.722656 33.515625 41.222656 C 32.890625 40.695312 32.144531 40.433594 31.273438 40.433594 L 27.917969 40.433594 Z M 72.933594 33.234375 C 73.574219 33.234375 74.179688 33.488281 74.632812 33.941406 C 75.082031 34.394531 75.335938 35.007812 75.335938 35.648438 C 75.335938 36.292969 75.082031 36.902344 74.632812 37.355469 C 74.179688 37.808594 73.574219 38.0625 72.933594 38.0625 C 72.296875 38.0625 71.6875 37.808594 71.234375 37.355469 C 70.785156 36.902344 70.53125 36.292969 70.53125 35.648438 C 70.53125 35.007812 70.785156 34.394531 71.234375 33.941406 C 71.6875 33.488281 72.296875 33.234375 72.933594 33.234375 Z M 73.824219 34.753906 C 73.589844 34.511719 73.269531 34.378906 72.933594 34.378906 C 72.597656 34.378906 72.277344 34.511719 72.042969 34.753906 C 71.804688 34.992188 71.671875 35.3125 71.671875 35.648438 C 71.671875 35.988281 71.804688 36.308594 72.042969 36.546875 C 72.277344 36.785156 72.597656 36.917969 72.933594 36.917969 C 73.269531 36.917969 73.589844 36.785156 73.824219 36.546875 C 74.0625 36.308594 74.195312 35.988281 74.195312 35.648438 C 74.195312 35.3125 74.0625 34.992188 73.824219 34.753906 Z M 35.195312 53.382812 C 36.265625 53.382812 37.246094 53.183594 38.144531 52.78125 C 39.015625 52.382812 39.710938 51.832031 40.234375 51.128906 L 40.234375 40.433594 L 34.820312 40.433594 C 35.292969 40.832031 35.667969 41.257812 35.941406 41.707031 C 36.191406 42.183594 36.3125 42.632812 36.3125 43.058594 C 36.3125 44.085938 35.839844 44.972656 34.894531 45.726562 C 33.949219 46.449219 32.804688 46.8125 31.460938 46.8125 C 30.363281 46.8125 29.644531 46.75 29.292969 46.625 C 29.246094 46.902344 29.21875 47.152344 29.21875 47.375 C 29.21875 49.027344 29.804688 50.441406 30.976562 51.617188 C 32.144531 52.792969 33.550781 53.382812 35.195312 53.382812 Z M 35.195312 53.382812 "/>
</g>
</svg>
