<?xml version="1.0" encoding="UTF-8"?>
<svg xmlns="http://www.w3.org/2000/svg" xmlns:xlink="http://www.w3.org/1999/xlink" width="100px" height="61px" viewBox="0 0 100 61" version="1.1">
<g id="surface1">
<path style=" stroke:none;fill-rule:nonzero;fill:rgb(100%,100%,100%);fill-opacity:1;" d="M 16.507812 14.714844 L 16.507812 21.703125 L 9.292969 21.703125 C 8.707031 21.703125 8.175781 21.882812 7.726562 22.273438 C 6.351562 23.460938 7.566406 24.953125 8.464844 25.988281 C 12.25 24.917969 15.273438 25.789062 17.308594 27.535156 C 18.679688 28.707031 19.59375 30.28125 19.988281 31.9375 C 21.300781 37.40625 17.019531 40.738281 11.671875 40.703125 L 11.671875 38.378906 C 14.976562 38.082031 18.382812 36.554688 17.421875 32.5625 C 17.15625 31.441406 16.535156 30.371094 15.601562 29.574219 C 12.34375 26.78125 7.171875 28.714844 4.765625 31.703125 C 3.246094 33.59375 2.464844 36.121094 2.679688 38.933594 C 2.921875 42.082031 4.199219 44.925781 6.203125 46.953125 C 8.09375 48.871094 10.644531 50.050781 13.574219 50.050781 C 15.761719 50.050781 17.824219 49.394531 19.550781 48.246094 C 21.300781 47.085938 22.714844 45.417969 23.570312 43.414062 L 25.835938 43.402344 C 24.96875 46.335938 23.058594 48.828125 21 50.476562 C 18.84375 51.910156 16.277344 52.730469 13.574219 52.730469 C 9.898438 52.730469 6.703125 51.25 4.332031 48.847656 C 1.890625 46.378906 0.332031 42.929688 0.0429688 39.132812 C -0.226562 35.621094 0.773438 32.433594 2.71875 30.019531 C 3.617188 28.902344 4.710938 27.957031 5.976562 27.222656 C 4.914062 26.019531 3.960938 24.535156 3.960938 23.289062 C 3.960938 22.0625 4.492188 21.039062 5.53125 20.179688 C 6.585938 19.304688 7.828125 18.847656 9.292969 18.847656 L 13.371094 18.847656 L 13.371094 14.714844 L 1.757812 14.714844 L 1.757812 12.53125 L 24.191406 12.53125 C 23.8125 12.214844 23.546875 11.769531 23.367188 11.304688 C 23.070312 10.5625 22.96875 9.75 22.96875 8.953125 C 22.96875 6.445312 23.90625 4.339844 25.722656 2.636719 C 27.554688 0.847656 29.765625 0 32.304688 0 C 34.988281 0 37.304688 1.140625 39.320312 2.875 C 41.511719 4.765625 43.0625 7.140625 44.097656 9.832031 L 41.375 9.832031 C 40.542969 7.9375 39.40625 6.210938 37.867188 4.808594 C 36.296875 3.378906 34.449219 2.429688 32.304688 2.429688 C 30.464844 2.429688 28.894531 3.074219 27.570312 4.363281 C 26.28125 5.621094 25.609375 7.136719 25.609375 8.953125 C 25.609375 9.75 25.703125 10.578125 25.992188 11.324219 C 26.183594 11.820312 26.488281 12.308594 26.984375 12.53125 L 100.003906 12.53125 L 100.003906 14.714844 L 95.875 14.714844 L 95.875 44.351562 L 93.234375 44.351562 L 93.234375 25.035156 L 88.375 25.035156 L 88.375 22.605469 L 93.234375 22.605469 L 93.234375 14.714844 L 83.757812 14.714844 C 84.90625 15.46875 85.816406 16.472656 86.488281 17.699219 C 87.257812 19.101562 87.617188 20.621094 87.617188 22.222656 C 87.617188 24.589844 86.609375 26.507812 84.863281 28.054688 C 82.992188 29.710938 80.757812 30.441406 78.28125 30.441406 L 77.5625 30.441406 L 83.375 36.507812 L 81.269531 37.664062 L 71.050781 26.886719 L 72.699219 25.265625 L 75.1875 27.78125 C 76.101562 28.121094 77.070312 28.257812 78.039062 28.257812 C 79.898438 28.257812 81.5625 27.695312 82.972656 26.464844 C 84.261719 25.34375 84.976562 23.953125 84.976562 22.222656 C 84.976562 20.183594 84.324219 18.398438 82.964844 16.890625 C 81.621094 15.46875 79.992188 14.714844 78.039062 14.714844 L 69.054688 14.714844 L 69.054688 37.320312 L 66.414062 37.320312 L 66.414062 14.714844 L 62.007812 14.714844 L 62.007812 22.738281 L 61.820312 22.542969 C 60.921875 21.601562 59.859375 20.890625 58.652344 20.40625 C 57.445312 19.878906 56.171875 19.628906 54.859375 19.628906 C 53.195312 19.628906 51.808594 20.253906 50.660156 21.464844 C 49.480469 22.707031 48.890625 24.183594 48.890625 25.910156 C 48.890625 27.535156 49.5 28.886719 50.65625 30.007812 C 51.832031 31.148438 53.230469 31.699219 54.859375 31.699219 C 55.765625 31.699219 56.679688 31.574219 57.539062 31.261719 C 58.238281 31.007812 58.882812 30.625 59.363281 30.046875 L 59.363281 27.273438 L 62.007812 27.273438 L 62.007812 37.320312 L 59.363281 37.320312 L 59.363281 33.03125 C 58.90625 33.410156 58.3125 33.636719 57.75 33.777344 C 56.820312 34.042969 55.820312 34.125 54.859375 34.125 C 52.519531 34.125 50.480469 33.34375 48.757812 31.738281 C 47.125 30.144531 46.25 28.210938 46.25 25.910156 C 46.25 23.507812 47.097656 21.453125 48.757812 19.738281 C 50.453125 18.058594 52.484375 17.199219 54.859375 17.199219 C 55.773438 17.199219 56.714844 17.273438 57.605469 17.5 C 58.214844 17.671875 58.847656 17.925781 59.363281 18.3125 L 59.363281 14.714844 L 41.011719 14.714844 C 42.222656 15.589844 43.214844 16.679688 43.964844 17.992188 C 44.710938 19.296875 45.144531 20.707031 45.144531 22.222656 C 45.144531 24.664062 44.132812 26.679688 42.390625 28.347656 C 40.539062 30.121094 38.300781 31.085938 35.789062 31.398438 L 40.492188 36.511719 L 38.457031 37.792969 L 28.808594 26.835938 L 30.46875 25.261719 L 34.203125 29.449219 C 36.386719 29.285156 38.535156 28.5625 40.15625 27.058594 C 41.632812 25.6875 42.5 24.019531 42.5 21.976562 C 42.5 20.351562 41.921875 18.925781 40.921875 17.671875 C 39.824219 16.289062 38.398438 15.332031 36.761719 14.714844 L 26.828125 14.714844 L 26.828125 37.253906 L 24.183594 37.253906 L 24.183594 14.714844 Z M 16.507812 14.714844 "/>
<path style=" stroke:none;fill-rule:nonzero;fill:rgb(100%,100%,100%);fill-opacity:1;" d="M 28.199219 39.582031 L 92.375 39.582031 L 92.375 41.105469 L 90.421875 41.105469 L 90.421875 58.660156 L 88.539062 58.660156 L 88.539062 47.214844 C 88.132812 46.628906 87.519531 46.15625 86.6875 45.800781 C 85.859375 45.46875 84.90625 45.304688 83.820312 45.304688 C 82.210938 45.304688 80.828125 45.863281 79.671875 46.984375 C 78.542969 48.101562 77.976562 49.453125 77.976562 51.027344 C 77.976562 52.402344 78.316406 53.6875 78.996094 54.882812 C 79.671875 56.078125 80.59375 57.019531 81.75 57.707031 L 80.429688 58.851562 C 79.09375 58.0625 78.039062 56.96875 77.257812 55.570312 C 76.480469 54.171875 76.089844 52.65625 76.089844 51.027344 C 76.089844 48.96875 76.84375 47.214844 78.351562 45.761719 C 79.863281 44.3125 81.6875 43.585938 83.820312 43.585938 C 84.828125 43.585938 85.746094 43.703125 86.578125 43.929688 C 87.382812 44.160156 88.035156 44.488281 88.539062 44.921875 L 88.539062 41.105469 L 74.570312 41.105469 L 74.570312 58.660156 L 72.683594 58.660156 L 72.683594 55.417969 C 72.179688 56.027344 71.488281 56.5 70.609375 56.828125 C 69.703125 57.160156 68.695312 57.324219 67.59375 57.324219 C 65.65625 57.324219 64.007812 56.652344 62.648438 55.304688 C 61.292969 53.980469 60.613281 52.363281 60.613281 50.457031 C 60.613281 48.496094 61.292969 46.832031 62.648438 45.457031 C 64.007812 44.082031 65.65625 43.398438 67.59375 43.398438 C 68.296875 43.398438 68.984375 43.523438 69.664062 43.777344 C 70.34375 44.058594 70.972656 44.441406 71.550781 44.921875 L 70.609375 46.257812 C 70.179688 45.878906 69.703125 45.597656 69.175781 45.417969 C 68.648438 45.214844 68.117188 45.113281 67.59375 45.113281 C 66.183594 45.113281 64.988281 45.636719 64.007812 46.675781 C 63.003906 47.722656 62.5 48.980469 62.5 50.457031 C 62.5 51.882812 63.003906 53.089844 64.007812 54.082031 C 64.988281 55.101562 66.183594 55.609375 67.59375 55.609375 C 68.671875 55.609375 69.664062 55.355469 70.570312 54.84375 C 71.476562 54.335938 72.179688 53.636719 72.683594 52.746094 L 72.683594 41.105469 L 59.4375 41.105469 L 59.4375 58.523438 L 57.566406 58.523438 L 57.566406 41.09375 L 50.113281 41.09375 L 50.113281 43.214844 C 51.613281 43.363281 52.921875 43.996094 54.046875 45.109375 C 55.320312 46.425781 55.957031 47.992188 55.957031 49.808594 C 55.957031 51.527344 55.320312 53.003906 54.046875 54.242188 C 52.75 55.453125 51.203125 56.0625 49.40625 56.0625 C 49.179688 56.0625 48.960938 56.054688 48.75 56.042969 L 52.109375 59.855469 L 50.957031 61.023438 L 45.847656 55.222656 L 43.074219 52.074219 L 44.226562 50.90625 L 45.847656 52.746094 L 46.742188 53.761719 C 46.917969 53.855469 47.105469 53.941406 47.308594 54.015625 C 47.929688 54.242188 48.632812 54.355469 49.40625 54.355469 C 50.703125 54.355469 51.800781 53.914062 52.699219 53.03125 C 53.625 52.144531 54.085938 51.074219 54.085938 49.808594 C 54.085938 48.445312 53.625 47.285156 52.699219 46.324219 C 51.800781 45.363281 50.703125 44.882812 49.40625 44.882812 C 48.570312 44.882812 47.773438 45.011719 47.023438 45.265625 L 47.023438 43.496094 C 47.113281 43.464844 47.210938 43.433594 47.308594 43.40625 C 47.59375 43.332031 47.90625 43.277344 48.242188 43.238281 L 48.242188 41.09375 L 45.734375 41.09375 L 45.734375 41.105469 L 42.527344 41.105469 L 42.527344 58.660156 L 40.640625 58.660156 L 40.640625 54.082031 C 40.0625 54.691406 39.335938 55.164062 38.453125 55.492188 C 37.574219 55.824219 36.605469 55.988281 35.550781 55.988281 C 33.363281 55.988281 31.5 55.226562 29.96875 53.699219 C 28.40625 52.171875 27.628906 50.328125 27.628906 48.167969 C 27.628906 47.328125 27.679688 46.640625 27.78125 46.105469 C 27.882812 45.546875 28.019531 45.152344 28.195312 44.921875 C 28.496094 45.226562 28.9375 45.46875 29.515625 45.648438 C 30.070312 45.800781 30.695312 45.878906 31.398438 45.878906 C 32.332031 45.878906 33.136719 45.671875 33.8125 45.265625 C 34.46875 44.859375 34.796875 44.363281 34.796875 43.777344 C 34.796875 43.039062 34.480469 42.417969 33.851562 41.90625 C 33.226562 41.375 32.46875 41.105469 31.589844 41.105469 L 28.199219 41.105469 Z M 73.671875 33.789062 C 74.316406 33.789062 74.929688 34.046875 75.382812 34.507812 C 75.84375 34.96875 76.09375 35.589844 76.09375 36.242188 C 76.09375 36.894531 75.84375 37.515625 75.382812 37.976562 C 74.929688 38.441406 74.316406 38.695312 73.671875 38.695312 C 73.023438 38.695312 72.414062 38.441406 71.953125 37.976562 C 71.5 37.515625 71.246094 36.894531 71.246094 36.242188 C 71.246094 35.589844 71.5 34.96875 71.953125 34.507812 C 72.414062 34.046875 73.023438 33.789062 73.671875 33.789062 Z M 74.570312 35.332031 C 74.332031 35.089844 74.007812 34.953125 73.671875 34.953125 C 73.332031 34.953125 73.007812 35.089844 72.769531 35.332031 C 72.53125 35.574219 72.398438 35.898438 72.398438 36.242188 C 72.398438 36.585938 72.53125 36.910156 72.769531 37.15625 C 73.007812 37.398438 73.332031 37.53125 73.671875 37.53125 C 74.007812 37.53125 74.332031 37.398438 74.570312 37.15625 C 74.8125 36.910156 74.945312 36.585938 74.945312 36.242188 C 74.945312 35.898438 74.8125 35.574219 74.570312 35.332031 Z M 35.550781 54.273438 C 36.632812 54.273438 37.625 54.070312 38.53125 53.664062 C 39.410156 53.253906 40.113281 52.695312 40.640625 51.984375 L 40.640625 41.105469 L 35.171875 41.105469 C 35.648438 41.511719 36.027344 41.945312 36.304688 42.402344 C 36.554688 42.886719 36.679688 43.34375 36.679688 43.777344 C 36.679688 44.820312 36.203125 45.722656 35.25 46.488281 C 34.292969 47.226562 33.136719 47.59375 31.777344 47.59375 C 30.671875 47.59375 29.941406 47.53125 29.589844 47.402344 C 29.539062 47.683594 29.515625 47.9375 29.515625 48.167969 C 29.515625 49.847656 30.105469 51.285156 31.289062 52.480469 C 32.46875 53.675781 33.890625 54.273438 35.550781 54.273438 Z M 35.550781 54.273438 "/>
</g>
</svg>
